<svg aria-hidden="true" style="position: absolute; width: 0; height: 0; overflow: hidden;" version="1.1" xmlns="http://www.w3.org/2000/svg" xmlns:xlink="http://www.w3.org/1999/xlink">
<defs>
<symbol id="icon-cloud" viewBox="0 0 40 32">
<path d="M25.494 19.995l-14.425-0.183c-0.094-0.002-0.176-0.049-0.226-0.12l-0.001-0.001c-0.030-0.045-0.048-0.101-0.048-0.16 0-0.035 0.006-0.069 0.018-0.101l-0.001 0.002c0.051-0.142 0.18-0.244 0.334-0.255l0.001-0 14.559-0.183c1.727-0.079 3.597-1.473 4.251-3.174l0.83-2.159c0.021-0.053 0.033-0.114 0.033-0.177 0-0.002 0-0.004-0-0.006v0c0-0.001 0-0.002 0-0.003 0-0.035-0.004-0.069-0.011-0.102l0.001 0.003c-0.999-4.255-4.763-7.375-9.255-7.375-4.135 0-7.653 2.644-8.955 6.333l-0.020 0.066c-0.705-0.537-1.597-0.86-2.566-0.86-2.351 0-4.258 1.906-4.258 4.258 0 0.374 0.048 0.736 0.139 1.081l-0.007-0.030c-3.267 0.095-5.888 2.759-5.888 6.033 0 0.308 0.024 0.61 0.068 0.906l-0.004-0.033c0.020 0.137 0.137 0.241 0.278 0.242l26.631 0.003c0.003 0 0.005-0.001 0.008-0.001 0.155-0.003 0.285-0.106 0.329-0.248l0.001-0.002 0.205-0.704c0.244-0.837 0.153-1.613-0.256-2.181-0.376-0.524-1.003-0.833-1.765-0.869zM32.116 13.819c-0.134 0-0.267 0.004-0.399 0.010-0.098 0.008-0.179 0.074-0.207 0.164l-0 0.002-0.567 1.95c-0.244 0.838-0.153 1.612 0.256 2.181 0.376 0.525 1.003 0.833 1.765 0.869l3.075 0.184c0.091 0.003 0.17 0.049 0.219 0.118l0.001 0.001c0.031 0.045 0.049 0.102 0.049 0.162 0 0.035-0.006 0.069-0.018 0.101l0.001-0.002c-0.051 0.142-0.18 0.243-0.333 0.255l-0.001 0-3.195 0.184c-1.735 0.079-3.604 1.473-4.259 3.174l-0.231 0.6c-0.007 0.018-0.011 0.039-0.011 0.060 0 0.091 0.072 0.166 0.162 0.17h0c0.003 0 0.006 0.001 0.009 0.001h10.994c0.001 0 0.002 0 0.002 0 0.133 0 0.244-0.088 0.281-0.209l0.001-0.002c0.186-0.634 0.293-1.363 0.293-2.117 0-0.003 0-0.006 0-0.009v0c-0-4.333-3.53-7.846-7.884-7.846z"></path>
</symbol>
<symbol id="icon-drupal" viewBox="0 0 28 32">
<path d="M18.998 6.758c-2.236-2.23-4.362-4.362-4.995-6.758-0.622 2.397-2.766 4.529-5.001 6.758-3.348 3.348-7.144 7.139-7.144 12.831-0.146 6.706 5.172 12.261 11.878 12.407s12.261-5.172 12.407-11.878q0.006-0.264 0-0.529c0-5.692-3.797-9.483-7.145-12.831zM8.103 20.696c-0.352 0.439-0.668 0.934-0.929 1.462l-0.021 0.048c-0.040 0.085-0.114 0.149-0.205 0.172l-0.002 0h-0.104c-0.271 0-0.576-0.53-0.576-0.53v0c-0.081-0.127-0.156-0.259-0.23-0.398l-0.052-0.11c-0.703-1.607-0.092-3.895-0.092-3.895v0c0.326-1.187 0.824-2.225 1.473-3.149l-0.021 0.032c0.439-0.652 0.871-1.216 1.334-1.752l-0.020 0.023 0.576 0.576 2.72 2.777c0.049 0.055 0.079 0.128 0.079 0.207s-0.030 0.153-0.079 0.208l0-0-2.841 3.152zM14.141 28.653c-2.309-0.014-4.176-1.889-4.176-4.2 0-1.075 0.404-2.056 1.068-2.799l-0.004 0.004c0.887-1.054 1.97-2.091 3.146-3.457 1.394 1.487 2.305 2.506 3.198 3.624 0.066 0.081 0.127 0.171 0.18 0.267l0.005 0.009c0.469 0.66 0.749 1.481 0.749 2.368 0 0.002 0 0.004 0 0.006v-0c0 0.003 0 0.008 0 0.012 0 2.297-1.858 4.159-4.154 4.166h-0.001zM22.023 21.975v0c-0.055 0.174-0.203 0.304-0.383 0.334l-0.003 0h-0.081c-0.168-0.056-0.305-0.168-0.39-0.314l-0.002-0.003c-0.768-1.144-1.58-2.144-2.472-3.065l0.006 0.006-4.805-4.984c-0.777-0.721-1.499-1.462-2.183-2.237l-0.029-0.034c-0.019-0.033-0.038-0.061-0.059-0.088l0.001 0.002c-0.119-0.166-0.219-0.356-0.289-0.561l-0.005-0.016v-0.11c-0.016-0.095-0.026-0.204-0.026-0.316 0-0.555 0.231-1.056 0.601-1.412l0.001-0.001c0.714-0.714 1.435-1.435 2.115-2.184 0.749 0.83 1.55 1.625 2.339 2.414v0c1.591 1.484 3.020 3.102 4.283 4.847l0.067 0.097c1.041 1.458 1.671 3.273 1.688 5.233l0 0.004c-0.010 0.855-0.146 1.674-0.391 2.444l0.016-0.059z"></path>
</symbol>
<symbol id="icon-magnifying-glass" viewBox="0 0 32 32">
<path d="M14.75 11c0 0.966-0.784 1.75-1.75 1.75s-1.75-0.781-1.75-1.75 0.781-1.75 1.75-1.75 1.75 0.781 1.75 1.75zM31.269 31.269c-0.976 0.976-2.559 0.976-3.536 0l-7.481-7.481c-2.526 1.701-5.681 2.541-9.044 2.091-5.722-0.764-10.375-5.455-11.1-11.181-1.077-8.512 6.081-15.669 14.588-14.588 5.727 0.725 10.419 5.379 11.181 11.1 0.449 3.362-0.39 6.519-2.091 9.044l7.481 7.481c0.977 0.971 0.977 2.559 0.002 3.534zM18.381 11.387c0-2.981-2.406-5.388-5.438-5.388-2.919 0-5.325 2.406-5.325 5.388 0 2.397 3.518 6.781 4.867 8.375 0.127 0.144 0.308 0.238 0.458 0.238 0.2 0 0.391-0.091 0.519-0.237 1.4-1.594 4.919-5.982 4.919-8.376z"></path>
</symbol>
<symbol id="icon-location" viewBox="0 0 24 32">
<path d="M10.519 31.2c-3.263-4.012-10.519-13.738-10.519-19.2 0-6.628 5.372-12 12-12 6.625 0 12 5.372 12 12 0 5.462-7.313 15.188-10.519 19.2-0.769 0.956-2.194 0.956-2.963 0v0zM12 16c2.206 0 4-1.794 4-4s-1.794-4-4-4c-2.206 0-4 1.794-4 4s1.794 4 4 4z"></path>
</symbol>
<symbol id="icon-wind" viewBox="0 0 32 32">
<path d="M2 12h20c3.309 0 6-2.691 6-6s-2.691-6-6-6h-2c-1.106 0-2 0.894-2 2s0.894 2 2 2h2c1.104 0 2 0.896 2 2s-0.896 2-2 2h-20c-1.106 0-2 0.894-2 2s0.894 2 2 2zM10 20h-8c-1.106 0-2 0.894-2 2s0.894 2 2 2h8c1.104 0 2 0.896 2 2s-0.896 2-2 2h-2c-1.106 0-2 0.894-2 2s0.894 2 2 2h2c3.309 0 6-2.691 6-6s-2.694-6-6-6zM26 14h-24c-1.106 0-2 0.894-2 2s0.894 2 2 2h24c1.104 0 2 0.896 2 2s-0.896 2-2 2h-2c-1.106 0-2 0.894-2 2s0.894 2 2 2h2c3.309 0 6-2.691 6-6s-2.694-6-6-6z"></path>
</symbol>
</defs>
</svg>
